# xmcd
#
# Track frame offsets:
# 150
# 13090
# 29465
# 39697
# 49312
# 63372
# 79002
# 92357
# 106240
# 117005
# 130520
# 149560
# 168872
# 189667
# 205782
# 223787
# 242072
# 254460
# 267270
# 283582
# 299112
# 311625
#
# Disc length: 4381 seconds
#
# Revision: 1
# Processed by: cddbd v1.4PL0 Copyright (c) Steve Scherf et al.
# Submitted via: CedeCatalogueitor 2.5 http://usuarios.lycos.es/kakasboy
#
DISCID=49111b16
DTITLE=Dinamita Pa Los Pollos - Los Mejores Años De Nuestras Vidas
DYEAR=1993
DGENRE=
TTITLE0=Bourbon
TTITLE1=7 Novias Para 7 Hermanos
TTITLE2=Rancho De Pollos
TTITLE3=Locomotion
TTITLE4=Cantante De Country
TTITLE5=Pandilleros
TTITLE6=Toro Mecánico
TTITLE7=Purita Dinamita
TTITLE8=Billy Joe
TTITLE9=Dollar De Plata
TTITLE10=Billy Joe Bronca
TTITLE11=Un Agujero En El Bolsillo
TTITLE12=Pájaro De Mal Agüero
TTITLE13=Paseando Al Caimán
TTITLE14=Juana Calamidad
TTITLE15=Rio Grande
TTITLE16=Vino En La Jarra
TTITLE17=¿Dónde Están Mis Pantalones?
TTITLE18=Fantastico
TTITLE19=La Bomba Latina
TTITLE20=Todoterreno
TTITLE21=Siempre Detrás
EXTD=
EXTT0=
EXTT1=
EXTT2=
EXTT3=
EXTT4=
EXTT5=
EXTT6=
EXTT7=
EXTT8=
EXTT9=
EXTT10=
EXTT11=
EXTT12=
EXTT13=
EXTT14=
EXTT15=
EXTT16=
EXTT17=
EXTT18=
EXTT19=
EXTT20=
EXTT21=
PLAYORDER=
